<svg width="18" height="27" viewBox="0 0 18 27" fill="none" xmlns="http://www.w3.org/2000/svg">
<g filter="url(#filter0_d_233_72)">
<path d="M12.4853 3.29289C12.8758 2.90237 13.509 2.90237 13.8995 3.29289C14.29 3.68342 14.29 4.31658 13.8995 4.70711L4.70711 13.8995C4.31658 14.29 3.68342 14.29 3.29289 13.8995C2.90237 13.509 2.90237 12.8758 3.29289 12.4853L12.4853 3.29289Z" fill="white"/>
<path d="M3.3033 14.2175C2.91278 13.827 2.91278 13.1938 3.3033 12.8033C3.69383 12.4128 4.32699 12.4128 4.71752 12.8033L13.9099 21.9957C14.3004 22.3862 14.3004 23.0194 13.9099 23.4099C13.5194 23.8004 12.8862 23.8004 12.4957 23.4099L3.3033 14.2175Z" fill="white"/>
</g>
<defs>
<filter id="filter0_d_233_72" x="0" y="0" width="17.2028" height="26.7028" filterUnits="userSpaceOnUse" color-interpolation-filters="sRGB">
<feFlood flood-opacity="0" result="BackgroundImageFix"/>
<feColorMatrix in="SourceAlpha" type="matrix" values="0 0 0 0 0 0 0 0 0 0 0 0 0 0 0 0 0 0 127 0" result="hardAlpha"/>
<feOffset/>
<feGaussianBlur stdDeviation="1.5"/>
<feComposite in2="hardAlpha" operator="out"/>
<feColorMatrix type="matrix" values="0 0 0 0 0.607843 0 0 0 0 0.607843 0 0 0 0 0.607843 0 0 0 1 0"/>
<feBlend mode="normal" in2="BackgroundImageFix" result="effect1_dropShadow_233_72"/>
<feBlend mode="normal" in="SourceGraphic" in2="effect1_dropShadow_233_72" result="shape"/>
</filter>
</defs>
</svg>
