<svg width="18" height="27" viewBox="0 0 18 27" fill="none" xmlns="http://www.w3.org/2000/svg">
<g filter="url(#filter0_d_233_73)">
<path d="M4.71748 23.4099C4.32695 23.8004 3.69379 23.8004 3.30326 23.4099C2.91274 23.0194 2.91274 22.3862 3.30326 21.9957L12.4957 12.8033C12.8862 12.4128 13.5193 12.4128 13.9099 12.8033C14.3004 13.1938 14.3004 13.827 13.9099 14.2175L4.71748 23.4099Z" fill="white"/>
<path d="M13.8995 12.4853C14.29 12.8758 14.29 13.509 13.8995 13.8995C13.5089 14.29 12.8758 14.29 12.4852 13.8995L3.29285 4.7071C2.90233 4.31658 2.90233 3.68341 3.29285 3.29289C3.68338 2.90236 4.31654 2.90236 4.70707 3.29289L13.8995 12.4853Z" fill="white"/>
</g>
<defs>
<filter id="filter0_d_233_73" x="0" y="0" width="17.2028" height="26.7028" filterUnits="userSpaceOnUse" color-interpolation-filters="sRGB">
<feFlood flood-opacity="0" result="BackgroundImageFix"/>
<feColorMatrix in="SourceAlpha" type="matrix" values="0 0 0 0 0 0 0 0 0 0 0 0 0 0 0 0 0 0 127 0" result="hardAlpha"/>
<feOffset/>
<feGaussianBlur stdDeviation="1.5"/>
<feComposite in2="hardAlpha" operator="out"/>
<feColorMatrix type="matrix" values="0 0 0 0 0.607843 0 0 0 0 0.607843 0 0 0 0 0.607843 0 0 0 1 0"/>
<feBlend mode="normal" in2="BackgroundImageFix" result="effect1_dropShadow_233_73"/>
<feBlend mode="normal" in="SourceGraphic" in2="effect1_dropShadow_233_73" result="shape"/>
</filter>
</defs>
</svg>
